<?xml version="1.0" encoding="UTF-8" standalone="no"?>
<!DOCTYPE svg PUBLIC "-//W3C//DTD SVG 1.1//EN"
 "http://www.w3.org/Graphics/SVG/1.1/DTD/svg11.dtd">
<!-- Generated by graphviz version 2.49.0 (20210828.1703)
 -->
<!-- Pages: 1 -->
<svg width="2413pt" height="764pt"
 viewBox="0.00 0.00 2413.00 764.00" xmlns="http://www.w3.org/2000/svg" xmlns:xlink="http://www.w3.org/1999/xlink">
<g id="graph0" class="graph" transform="scale(1 1) rotate(0) translate(4 760)">
<polygon fill="white" stroke="transparent" points="-4,4 -4,-760 2409,-760 2409,4 -4,4"/>
<!-- [root] aws_cloudwatch_metric_alarm.CPU (expand) -->
<g id="node1" class="node">
<title>[root] aws_cloudwatch_metric_alarm.CPU (expand)</title>
<polygon fill="none" stroke="black" points="995.5,-612 773.5,-612 773.5,-576 995.5,-576 995.5,-612"/>
<text text-anchor="middle" x="884.5" y="-590.3" font-family="Times,serif" font-size="14.00">aws_cloudwatch_metric_alarm.CPU</text>
</g>
<!-- [root] aws_instance.PagerDuty&#45;instance (expand) -->
<g id="node3" class="node">
<title>[root] aws_instance.PagerDuty&#45;instance (expand)</title>
<polygon fill="none" stroke="black" points="772,-540 567,-540 567,-504 772,-504 772,-540"/>
<text text-anchor="middle" x="669.5" y="-518.3" font-family="Times,serif" font-size="14.00">aws_instance.PagerDuty&#45;instance</text>
</g>
<!-- [root] aws_cloudwatch_metric_alarm.CPU (expand)&#45;&gt;[root] aws_instance.PagerDuty&#45;instance (expand) -->
<g id="edge1" class="edge">
<title>[root] aws_cloudwatch_metric_alarm.CPU (expand)&#45;&gt;[root] aws_instance.PagerDuty&#45;instance (expand)</title>
<path fill="none" stroke="black" d="M832.18,-575.97C801.88,-566.1 763.55,-553.62 731.71,-543.25"/>
<polygon fill="black" stroke="black" points="732.65,-539.88 722.05,-540.11 730.48,-546.53 732.65,-539.88"/>
</g>
<!-- [root] aws_sns_topic.pagerdutysns (expand) -->
<g id="node9" class="node">
<title>[root] aws_sns_topic.pagerdutysns (expand)</title>
<polygon fill="none" stroke="black" points="1010.5,-540 834.5,-540 834.5,-504 1010.5,-504 1010.5,-540"/>
<text text-anchor="middle" x="922.5" y="-518.3" font-family="Times,serif" font-size="14.00">aws_sns_topic.pagerdutysns</text>
</g>
<!-- [root] aws_cloudwatch_metric_alarm.CPU (expand)&#45;&gt;[root] aws_sns_topic.pagerdutysns (expand) -->
<g id="edge2" class="edge">
<title>[root] aws_cloudwatch_metric_alarm.CPU (expand)&#45;&gt;[root] aws_sns_topic.pagerdutysns (expand)</title>
<path fill="none" stroke="black" d="M893.89,-575.7C898.26,-567.64 903.56,-557.89 908.4,-548.98"/>
<polygon fill="black" stroke="black" points="911.52,-550.56 913.21,-540.1 905.37,-547.22 911.52,-550.56"/>
</g>
<!-- [root] aws_cloudwatch_metric_alarm.Health (expand) -->
<g id="node2" class="node">
<title>[root] aws_cloudwatch_metric_alarm.Health (expand)</title>
<polygon fill="none" stroke="black" points="755.5,-612 523.5,-612 523.5,-576 755.5,-576 755.5,-612"/>
<text text-anchor="middle" x="639.5" y="-590.3" font-family="Times,serif" font-size="14.00">aws_cloudwatch_metric_alarm.Health</text>
</g>
<!-- [root] aws_cloudwatch_metric_alarm.Health (expand)&#45;&gt;[root] aws_instance.PagerDuty&#45;instance (expand) -->
<g id="edge3" class="edge">
<title>[root] aws_cloudwatch_metric_alarm.Health (expand)&#45;&gt;[root] aws_instance.PagerDuty&#45;instance (expand)</title>
<path fill="none" stroke="black" d="M646.92,-575.7C650.29,-567.81 654.37,-558.3 658.12,-549.55"/>
<polygon fill="black" stroke="black" points="661.45,-550.67 662.17,-540.1 655.01,-547.92 661.45,-550.67"/>
</g>
<!-- [root] aws_cloudwatch_metric_alarm.Health (expand)&#45;&gt;[root] aws_sns_topic.pagerdutysns (expand) -->
<g id="edge4" class="edge">
<title>[root] aws_cloudwatch_metric_alarm.Health (expand)&#45;&gt;[root] aws_sns_topic.pagerdutysns (expand)</title>
<path fill="none" stroke="black" d="M708.37,-575.97C749.2,-565.87 801.1,-553.03 843.58,-542.52"/>
<polygon fill="black" stroke="black" points="844.46,-545.91 853.32,-540.11 842.78,-539.11 844.46,-545.91"/>
</g>
<!-- [root] aws_key_pair.mykeypair (expand) -->
<g id="node5" class="node">
<title>[root] aws_key_pair.mykeypair (expand)</title>
<polygon fill="none" stroke="black" points="778,-396 621,-396 621,-360 778,-360 778,-396"/>
<text text-anchor="middle" x="699.5" y="-374.3" font-family="Times,serif" font-size="14.00">aws_key_pair.mykeypair</text>
</g>
<!-- [root] aws_instance.PagerDuty&#45;instance (expand)&#45;&gt;[root] aws_key_pair.mykeypair (expand) -->
<g id="edge5" class="edge">
<title>[root] aws_instance.PagerDuty&#45;instance (expand)&#45;&gt;[root] aws_key_pair.mykeypair (expand)</title>
<path fill="none" stroke="black" d="M673.12,-503.87C678.25,-479.56 687.71,-434.82 693.79,-406.01"/>
<polygon fill="black" stroke="black" points="697.23,-406.7 695.87,-396.19 690.38,-405.25 697.23,-406.7"/>
</g>
<!-- [root] aws_security_group.Pager&#45;SG (expand) -->
<g id="node8" class="node">
<title>[root] aws_security_group.Pager&#45;SG (expand)</title>
<polygon fill="none" stroke="black" points="663,-468 476,-468 476,-432 663,-432 663,-468"/>
<text text-anchor="middle" x="569.5" y="-446.3" font-family="Times,serif" font-size="14.00">aws_security_group.Pager&#45;SG</text>
</g>
<!-- [root] aws_instance.PagerDuty&#45;instance (expand)&#45;&gt;[root] aws_security_group.Pager&#45;SG (expand) -->
<g id="edge6" class="edge">
<title>[root] aws_instance.PagerDuty&#45;instance (expand)&#45;&gt;[root] aws_security_group.Pager&#45;SG (expand)</title>
<path fill="none" stroke="black" d="M645.04,-503.88C632.2,-494.89 616.3,-483.76 602.41,-474.03"/>
<polygon fill="black" stroke="black" points="604.26,-471.06 594.06,-468.19 600.24,-476.79 604.26,-471.06"/>
</g>
<!-- [root] aws_subnet.public&#45;subnet&#45;Pager (expand) -->
<g id="node11" class="node">
<title>[root] aws_subnet.public&#45;subnet&#45;Pager (expand)</title>
<polygon fill="none" stroke="black" points="457.5,-468 259.5,-468 259.5,-432 457.5,-432 457.5,-468"/>
<text text-anchor="middle" x="358.5" y="-446.3" font-family="Times,serif" font-size="14.00">aws_subnet.public&#45;subnet&#45;Pager</text>
</g>
<!-- [root] aws_instance.PagerDuty&#45;instance (expand)&#45;&gt;[root] aws_subnet.public&#45;subnet&#45;Pager (expand) -->
<g id="edge7" class="edge">
<title>[root] aws_instance.PagerDuty&#45;instance (expand)&#45;&gt;[root] aws_subnet.public&#45;subnet&#45;Pager (expand)</title>
<path fill="none" stroke="black" d="M593.82,-503.97C548.58,-493.78 490.98,-480.82 444.09,-470.26"/>
<polygon fill="black" stroke="black" points="444.78,-466.83 434.25,-468.05 443.24,-473.66 444.78,-466.83"/>
</g>
<!-- [root] data.aws_ami.test_ami (expand) -->
<g id="node13" class="node">
<title>[root] data.aws_ami.test_ami (expand)</title>
<polygon fill="none" stroke="black" points="940.5,-396 796.5,-396 796.5,-360 940.5,-360 940.5,-396"/>
<text text-anchor="middle" x="868.5" y="-374.3" font-family="Times,serif" font-size="14.00">data.aws_ami.test_ami</text>
</g>
<!-- [root] aws_instance.PagerDuty&#45;instance (expand)&#45;&gt;[root] data.aws_ami.test_ami (expand) -->
<g id="edge8" class="edge">
<title>[root] aws_instance.PagerDuty&#45;instance (expand)&#45;&gt;[root] data.aws_ami.test_ami (expand)</title>
<path fill="none" stroke="black" d="M693.5,-503.87C729.14,-478.44 796.11,-430.65 836.07,-402.14"/>
<polygon fill="black" stroke="black" points="838.3,-404.85 844.41,-396.19 834.24,-399.15 838.3,-404.85"/>
</g>
<!-- [root] aws_internet_gateway.Pagerinternet&#45;gw (expand) -->
<g id="node4" class="node">
<title>[root] aws_internet_gateway.Pagerinternet&#45;gw (expand)</title>
<polygon fill="none" stroke="black" points="241,-468 0,-468 0,-432 241,-432 241,-468"/>
<text text-anchor="middle" x="120.5" y="-446.3" font-family="Times,serif" font-size="14.00">aws_internet_gateway.Pagerinternet&#45;gw</text>
</g>
<!-- [root] aws_vpc.pager&#45;vpc (expand) -->
<g id="node12" class="node">
<title>[root] aws_vpc.pager&#45;vpc (expand)</title>
<polygon fill="none" stroke="black" points="396,-396 271,-396 271,-360 396,-360 396,-396"/>
<text text-anchor="middle" x="333.5" y="-374.3" font-family="Times,serif" font-size="14.00">aws_vpc.pager&#45;vpc</text>
</g>
<!-- [root] aws_internet_gateway.Pagerinternet&#45;gw (expand)&#45;&gt;[root] aws_vpc.pager&#45;vpc (expand) -->
<g id="edge9" class="edge">
<title>[root] aws_internet_gateway.Pagerinternet&#45;gw (expand)&#45;&gt;[root] aws_vpc.pager&#45;vpc (expand)</title>
<path fill="none" stroke="black" d="M172.33,-431.97C202.35,-422.1 240.32,-409.62 271.87,-399.25"/>
<polygon fill="black" stroke="black" points="273.03,-402.56 281.43,-396.11 270.84,-395.91 273.03,-402.56"/>
</g>
<!-- [root] provider[&quot;registry.terraform.io/hashicorp/aws&quot;] -->
<g id="node30" class="node">
<title>[root] provider[&quot;registry.terraform.io/hashicorp/aws&quot;]</title>
<polygon fill="none" stroke="black" points="784.5,-324 526.43,-306 784.5,-288 1042.57,-306 784.5,-324"/>
<text text-anchor="middle" x="784.5" y="-302.3" font-family="Times,serif" font-size="14.00">provider[&quot;registry.terraform.io/hashicorp/aws&quot;]</text>
</g>
<!-- [root] aws_key_pair.mykeypair (expand)&#45;&gt;[root] provider[&quot;registry.terraform.io/hashicorp/aws&quot;] -->
<g id="edge10" class="edge">
<title>[root] aws_key_pair.mykeypair (expand)&#45;&gt;[root] provider[&quot;registry.terraform.io/hashicorp/aws&quot;]</title>
<path fill="none" stroke="black" d="M720.51,-359.7C731.62,-350.55 745.38,-339.22 757.29,-329.41"/>
<polygon fill="black" stroke="black" points="759.69,-331.97 765.18,-322.91 755.24,-326.56 759.69,-331.97"/>
</g>
<!-- [root] aws_route_table.Pager&#45;public (expand) -->
<g id="node6" class="node">
<title>[root] aws_route_table.Pager&#45;public (expand)</title>
<polygon fill="none" stroke="black" points="271,-540 88,-540 88,-504 271,-504 271,-540"/>
<text text-anchor="middle" x="179.5" y="-518.3" font-family="Times,serif" font-size="14.00">aws_route_table.Pager&#45;public</text>
</g>
<!-- [root] aws_route_table.Pager&#45;public (expand)&#45;&gt;[root] aws_internet_gateway.Pagerinternet&#45;gw (expand) -->
<g id="edge11" class="edge">
<title>[root] aws_route_table.Pager&#45;public (expand)&#45;&gt;[root] aws_internet_gateway.Pagerinternet&#45;gw (expand)</title>
<path fill="none" stroke="black" d="M164.92,-503.7C157.84,-495.3 149.22,-485.07 141.45,-475.86"/>
<polygon fill="black" stroke="black" points="144.04,-473.49 134.92,-468.1 138.69,-478.01 144.04,-473.49"/>
</g>
<!-- [root] aws_route_table_association.Pager&#45;public&#45;subnet (expand) -->
<g id="node7" class="node">
<title>[root] aws_route_table_association.Pager&#45;public&#45;subnet (expand)</title>
<polygon fill="none" stroke="black" points="505,-612 212,-612 212,-576 505,-576 505,-612"/>
<text text-anchor="middle" x="358.5" y="-590.3" font-family="Times,serif" font-size="14.00">aws_route_table_association.Pager&#45;public&#45;subnet</text>
</g>
<!-- [root] aws_route_table_association.Pager&#45;public&#45;subnet (expand)&#45;&gt;[root] aws_route_table.Pager&#45;public (expand) -->
<g id="edge12" class="edge">
<title>[root] aws_route_table_association.Pager&#45;public&#45;subnet (expand)&#45;&gt;[root] aws_route_table.Pager&#45;public (expand)</title>
<path fill="none" stroke="black" d="M314.71,-575.88C289.92,-566.18 258.72,-553.98 232.54,-543.74"/>
<polygon fill="black" stroke="black" points="233.73,-540.45 223.15,-540.07 231.18,-546.97 233.73,-540.45"/>
</g>
<!-- [root] aws_route_table_association.Pager&#45;public&#45;subnet (expand)&#45;&gt;[root] aws_subnet.public&#45;subnet&#45;Pager (expand) -->
<g id="edge13" class="edge">
<title>[root] aws_route_table_association.Pager&#45;public&#45;subnet (expand)&#45;&gt;[root] aws_subnet.public&#45;subnet&#45;Pager (expand)</title>
<path fill="none" stroke="black" d="M358.5,-575.87C358.5,-551.67 358.5,-507.21 358.5,-478.39"/>
<polygon fill="black" stroke="black" points="362,-478.19 358.5,-468.19 355,-478.19 362,-478.19"/>
</g>
<!-- [root] aws_security_group.Pager&#45;SG (expand)&#45;&gt;[root] aws_vpc.pager&#45;vpc (expand) -->
<g id="edge14" class="edge">
<title>[root] aws_security_group.Pager&#45;SG (expand)&#45;&gt;[root] aws_vpc.pager&#45;vpc (expand)</title>
<path fill="none" stroke="black" d="M512.07,-431.97C478.52,-422.01 436.01,-409.41 400.89,-398.99"/>
<polygon fill="black" stroke="black" points="401.77,-395.6 391.19,-396.11 399.78,-402.31 401.77,-395.6"/>
</g>
<!-- [root] var.SG&#45;ports -->
<g id="node32" class="node">
<title>[root] var.SG&#45;ports</title>
<polygon fill="none" stroke="black" points="496.5,-396 414.5,-396 414.5,-360 502.5,-360 502.5,-390 496.5,-396"/>
<polyline fill="none" stroke="black" points="496.5,-396 496.5,-390 "/>
<polyline fill="none" stroke="black" points="502.5,-390 496.5,-390 "/>
<text text-anchor="middle" x="458.5" y="-374.3" font-family="Times,serif" font-size="14.00">var.SG&#45;ports</text>
</g>
<!-- [root] aws_security_group.Pager&#45;SG (expand)&#45;&gt;[root] var.SG&#45;ports -->
<g id="edge15" class="edge">
<title>[root] aws_security_group.Pager&#45;SG (expand)&#45;&gt;[root] var.SG&#45;ports</title>
<path fill="none" stroke="black" d="M542.35,-431.88C527.97,-422.81 510.12,-411.55 494.59,-401.76"/>
<polygon fill="black" stroke="black" points="496.08,-398.56 485.76,-396.19 492.35,-404.48 496.08,-398.56"/>
</g>
<!-- [root] var.sg&#45;ports -->
<g id="node34" class="node">
<title>[root] var.sg&#45;ports</title>
<polygon fill="none" stroke="black" points="596.5,-396 520.5,-396 520.5,-360 602.5,-360 602.5,-390 596.5,-396"/>
<polyline fill="none" stroke="black" points="596.5,-396 596.5,-390 "/>
<polyline fill="none" stroke="black" points="602.5,-390 596.5,-390 "/>
<text text-anchor="middle" x="561.5" y="-374.3" font-family="Times,serif" font-size="14.00">var.sg&#45;ports</text>
</g>
<!-- [root] aws_security_group.Pager&#45;SG (expand)&#45;&gt;[root] var.sg&#45;ports -->
<g id="edge16" class="edge">
<title>[root] aws_security_group.Pager&#45;SG (expand)&#45;&gt;[root] var.sg&#45;ports</title>
<path fill="none" stroke="black" d="M567.52,-431.7C566.64,-423.98 565.58,-414.71 564.6,-406.11"/>
<polygon fill="black" stroke="black" points="568.07,-405.64 563.45,-396.1 561.11,-406.44 568.07,-405.64"/>
</g>
<!-- [root] aws_sns_topic.pagerdutysns (expand)&#45;&gt;[root] provider[&quot;registry.terraform.io/hashicorp/aws&quot;] -->
<g id="edge17" class="edge">
<title>[root] aws_sns_topic.pagerdutysns (expand)&#45;&gt;[root] provider[&quot;registry.terraform.io/hashicorp/aws&quot;]</title>
<path fill="none" stroke="black" d="M932.87,-503.84C950.5,-472.19 981.48,-403.86 949.5,-360 935.46,-340.75 914.32,-328.34 891.82,-320.37"/>
<polygon fill="black" stroke="black" points="892.7,-316.98 882.1,-317.23 890.54,-323.64 892.7,-316.98"/>
</g>
<!-- [root] aws_sns_topic_subscription.pagerdutysnsub (expand) -->
<g id="node10" class="node">
<title>[root] aws_sns_topic_subscription.pagerdutysnsub (expand)</title>
<polygon fill="none" stroke="black" points="1279,-612 1014,-612 1014,-576 1279,-576 1279,-612"/>
<text text-anchor="middle" x="1146.5" y="-590.3" font-family="Times,serif" font-size="14.00">aws_sns_topic_subscription.pagerdutysnsub</text>
</g>
<!-- [root] aws_sns_topic_subscription.pagerdutysnsub (expand)&#45;&gt;[root] aws_sns_topic.pagerdutysns (expand) -->
<g id="edge18" class="edge">
<title>[root] aws_sns_topic_subscription.pagerdutysnsub (expand)&#45;&gt;[root] aws_sns_topic.pagerdutysns (expand)</title>
<path fill="none" stroke="black" d="M1091.99,-575.97C1060.28,-566.06 1020.14,-553.51 986.89,-543.12"/>
<polygon fill="black" stroke="black" points="987.84,-539.75 977.25,-540.11 985.76,-546.43 987.84,-539.75"/>
</g>
<!-- [root] pagerduty_service_integration.cloudwatch (expand) -->
<g id="node21" class="node">
<title>[root] pagerduty_service_integration.cloudwatch (expand)</title>
<polygon fill="none" stroke="black" points="1892,-540 1637,-540 1637,-504 1892,-504 1892,-540"/>
<text text-anchor="middle" x="1764.5" y="-518.3" font-family="Times,serif" font-size="14.00">pagerduty_service_integration.cloudwatch</text>
</g>
<!-- [root] aws_sns_topic_subscription.pagerdutysnsub (expand)&#45;&gt;[root] pagerduty_service_integration.cloudwatch (expand) -->
<g id="edge19" class="edge">
<title>[root] aws_sns_topic_subscription.pagerdutysnsub (expand)&#45;&gt;[root] pagerduty_service_integration.cloudwatch (expand)</title>
<path fill="none" stroke="black" d="M1279.15,-577.08C1282.3,-576.72 1285.42,-576.36 1288.5,-576 1402.48,-562.83 1531.89,-548.46 1626.97,-538.01"/>
<polygon fill="black" stroke="black" points="1627.38,-541.49 1636.94,-536.91 1626.61,-534.53 1627.38,-541.49"/>
</g>
<!-- [root] aws_subnet.public&#45;subnet&#45;Pager (expand)&#45;&gt;[root] aws_vpc.pager&#45;vpc (expand) -->
<g id="edge20" class="edge">
<title>[root] aws_subnet.public&#45;subnet&#45;Pager (expand)&#45;&gt;[root] aws_vpc.pager&#45;vpc (expand)</title>
<path fill="none" stroke="black" d="M352.32,-431.7C349.5,-423.81 346.11,-414.3 342.98,-405.55"/>
<polygon fill="black" stroke="black" points="346.27,-404.34 339.61,-396.1 339.68,-406.7 346.27,-404.34"/>
</g>
<!-- [root] aws_vpc.pager&#45;vpc (expand)&#45;&gt;[root] provider[&quot;registry.terraform.io/hashicorp/aws&quot;] -->
<g id="edge21" class="edge">
<title>[root] aws_vpc.pager&#45;vpc (expand)&#45;&gt;[root] provider[&quot;registry.terraform.io/hashicorp/aws&quot;]</title>
<path fill="none" stroke="black" d="M396.26,-361.82C399.38,-361.18 402.47,-360.57 405.5,-360 498.3,-342.59 604.87,-328.18 681.32,-318.8"/>
<polygon fill="black" stroke="black" points="681.93,-322.25 691.43,-317.57 681.08,-315.3 681.93,-322.25"/>
</g>
<!-- [root] data.aws_ami.test_ami (expand)&#45;&gt;[root] provider[&quot;registry.terraform.io/hashicorp/aws&quot;] -->
<g id="edge22" class="edge">
<title>[root] data.aws_ami.test_ami (expand)&#45;&gt;[root] provider[&quot;registry.terraform.io/hashicorp/aws&quot;]</title>
<path fill="none" stroke="black" d="M847.74,-359.7C836.76,-350.55 823.16,-339.22 811.39,-329.41"/>
<polygon fill="black" stroke="black" points="813.51,-326.62 803.59,-322.91 809.03,-332 813.51,-326.62"/>
</g>
<!-- [root] data.pagerduty_vendor.cloudwatch (expand) -->
<g id="node14" class="node">
<title>[root] data.pagerduty_vendor.cloudwatch (expand)</title>
<polygon fill="none" stroke="black" points="2016.5,-252 1804.5,-252 1804.5,-216 2016.5,-216 2016.5,-252"/>
<text text-anchor="middle" x="1910.5" y="-230.3" font-family="Times,serif" font-size="14.00">data.pagerduty_vendor.cloudwatch</text>
</g>
<!-- [root] provider[&quot;registry.terraform.io/pagerduty/pagerduty&quot;] -->
<g id="node31" class="node">
<title>[root] provider[&quot;registry.terraform.io/pagerduty/pagerduty&quot;]</title>
<polygon fill="none" stroke="black" points="1655.5,-108 1364.25,-90 1655.5,-72 1946.75,-90 1655.5,-108"/>
<text text-anchor="middle" x="1655.5" y="-86.3" font-family="Times,serif" font-size="14.00">provider[&quot;registry.terraform.io/pagerduty/pagerduty&quot;]</text>
</g>
<!-- [root] data.pagerduty_vendor.cloudwatch (expand)&#45;&gt;[root] provider[&quot;registry.terraform.io/pagerduty/pagerduty&quot;] -->
<g id="edge23" class="edge">
<title>[root] data.pagerduty_vendor.cloudwatch (expand)&#45;&gt;[root] provider[&quot;registry.terraform.io/pagerduty/pagerduty&quot;]</title>
<path fill="none" stroke="black" d="M1899.13,-215.69C1885.08,-195.62 1859.34,-162.88 1829.5,-144 1801.57,-126.33 1767.39,-114.25 1736.74,-106.14"/>
<polygon fill="black" stroke="black" points="1737.48,-102.72 1726.92,-103.65 1735.75,-109.5 1737.48,-102.72"/>
</g>
<!-- [root] data.pagerduty_vendor.newrelic (expand) -->
<g id="node15" class="node">
<title>[root] data.pagerduty_vendor.newrelic (expand)</title>
<polygon fill="none" stroke="black" points="1514.5,-324 1318.5,-324 1318.5,-288 1514.5,-288 1514.5,-324"/>
<text text-anchor="middle" x="1416.5" y="-302.3" font-family="Times,serif" font-size="14.00">data.pagerduty_vendor.newrelic</text>
</g>
<!-- [root] data.pagerduty_vendor.newrelic (expand)&#45;&gt;[root] provider[&quot;registry.terraform.io/pagerduty/pagerduty&quot;] -->
<g id="edge24" class="edge">
<title>[root] data.pagerduty_vendor.newrelic (expand)&#45;&gt;[root] provider[&quot;registry.terraform.io/pagerduty/pagerduty&quot;]</title>
<path fill="none" stroke="black" d="M1419.02,-287.95C1424.75,-255.23 1441.81,-183.42 1485.5,-144 1506.15,-125.37 1533.27,-113.29 1559.78,-105.46"/>
<polygon fill="black" stroke="black" points="1560.8,-108.8 1569.5,-102.76 1558.93,-102.06 1560.8,-108.8"/>
</g>
<!-- [root] pagerduty_escalation_policy.Priority&#45;High&#45;esc&#45;policy (expand) -->
<g id="node16" class="node">
<title>[root] pagerduty_escalation_policy.Priority&#45;High&#45;esc&#45;policy (expand)</title>
<polygon fill="none" stroke="black" points="1888.5,-396 1570.5,-396 1570.5,-360 1888.5,-360 1888.5,-396"/>
<text text-anchor="middle" x="1729.5" y="-374.3" font-family="Times,serif" font-size="14.00">pagerduty_escalation_policy.Priority&#45;High&#45;esc&#45;policy</text>
</g>
<!-- [root] pagerduty_schedule.PAGER1&#45;schedule (expand) -->
<g id="node18" class="node">
<title>[root] pagerduty_schedule.PAGER1&#45;schedule (expand)</title>
<polygon fill="none" stroke="black" points="1833,-324 1596,-324 1596,-288 1833,-288 1833,-324"/>
<text text-anchor="middle" x="1714.5" y="-302.3" font-family="Times,serif" font-size="14.00">pagerduty_schedule.PAGER1&#45;schedule</text>
</g>
<!-- [root] pagerduty_escalation_policy.Priority&#45;High&#45;esc&#45;policy (expand)&#45;&gt;[root] pagerduty_schedule.PAGER1&#45;schedule (expand) -->
<g id="edge33" class="edge">
<title>[root] pagerduty_escalation_policy.Priority&#45;High&#45;esc&#45;policy (expand)&#45;&gt;[root] pagerduty_schedule.PAGER1&#45;schedule (expand)</title>
<path fill="none" stroke="black" d="M1725.79,-359.7C1724.14,-351.98 1722.15,-342.71 1720.31,-334.11"/>
<polygon fill="black" stroke="black" points="1723.68,-333.15 1718.17,-324.1 1716.84,-334.62 1723.68,-333.15"/>
</g>
<!-- [root] pagerduty_escalation_policy.Priority&#45;Low&#45;esc&#45;policy (expand) -->
<g id="node17" class="node">
<title>[root] pagerduty_escalation_policy.Priority&#45;Low&#45;esc&#45;policy (expand)</title>
<polygon fill="none" stroke="black" points="2113,-612 1798,-612 1798,-576 2113,-576 2113,-612"/>
<text text-anchor="middle" x="1955.5" y="-590.3" font-family="Times,serif" font-size="14.00">pagerduty_escalation_policy.Priority&#45;Low&#45;esc&#45;policy</text>
</g>
<!-- [root] pagerduty_schedule.PAGER2&#45;schedule (expand) -->
<g id="node19" class="node">
<title>[root] pagerduty_schedule.PAGER2&#45;schedule (expand)</title>
<polygon fill="none" stroke="black" points="2155,-540 1918,-540 1918,-504 2155,-504 2155,-540"/>
<text text-anchor="middle" x="2036.5" y="-518.3" font-family="Times,serif" font-size="14.00">pagerduty_schedule.PAGER2&#45;schedule</text>
</g>
<!-- [root] pagerduty_escalation_policy.Priority&#45;Low&#45;esc&#45;policy (expand)&#45;&gt;[root] pagerduty_schedule.PAGER2&#45;schedule (expand) -->
<g id="edge34" class="edge">
<title>[root] pagerduty_escalation_policy.Priority&#45;Low&#45;esc&#45;policy (expand)&#45;&gt;[root] pagerduty_schedule.PAGER2&#45;schedule (expand)</title>
<path fill="none" stroke="black" d="M1975.52,-575.7C1985.63,-566.97 1998.04,-556.24 2009.02,-546.75"/>
<polygon fill="black" stroke="black" points="2011.43,-549.29 2016.71,-540.1 2006.85,-543.99 2011.43,-549.29"/>
</g>
<!-- [root] pagerduty_user.Jinendra (expand) -->
<g id="node27" class="node">
<title>[root] pagerduty_user.Jinendra (expand)</title>
<polygon fill="none" stroke="black" points="1625,-252 1472,-252 1472,-216 1625,-216 1625,-252"/>
<text text-anchor="middle" x="1548.5" y="-230.3" font-family="Times,serif" font-size="14.00">pagerduty_user.Jinendra</text>
</g>
<!-- [root] pagerduty_schedule.PAGER1&#45;schedule (expand)&#45;&gt;[root] pagerduty_user.Jinendra (expand) -->
<g id="edge35" class="edge">
<title>[root] pagerduty_schedule.PAGER1&#45;schedule (expand)&#45;&gt;[root] pagerduty_user.Jinendra (expand)</title>
<path fill="none" stroke="black" d="M1673.89,-287.88C1651.1,-278.26 1622.47,-266.19 1598.33,-256.01"/>
<polygon fill="black" stroke="black" points="1599.55,-252.73 1588.98,-252.07 1596.83,-259.18 1599.55,-252.73"/>
</g>
<!-- [root] pagerduty_user.rupesh (expand) -->
<g id="node29" class="node">
<title>[root] pagerduty_user.rupesh (expand)</title>
<polygon fill="none" stroke="black" points="1786,-252 1643,-252 1643,-216 1786,-216 1786,-252"/>
<text text-anchor="middle" x="1714.5" y="-230.3" font-family="Times,serif" font-size="14.00">pagerduty_user.rupesh</text>
</g>
<!-- [root] pagerduty_schedule.PAGER1&#45;schedule (expand)&#45;&gt;[root] pagerduty_user.rupesh (expand) -->
<g id="edge36" class="edge">
<title>[root] pagerduty_schedule.PAGER1&#45;schedule (expand)&#45;&gt;[root] pagerduty_user.rupesh (expand)</title>
<path fill="none" stroke="black" d="M1714.5,-287.7C1714.5,-279.98 1714.5,-270.71 1714.5,-262.11"/>
<polygon fill="black" stroke="black" points="1718,-262.1 1714.5,-252.1 1711,-262.1 1718,-262.1"/>
</g>
<!-- [root] pagerduty_user.jack (expand) -->
<g id="node28" class="node">
<title>[root] pagerduty_user.jack (expand)</title>
<polygon fill="none" stroke="black" points="2109,-468 1980,-468 1980,-432 2109,-432 2109,-468"/>
<text text-anchor="middle" x="2044.5" y="-446.3" font-family="Times,serif" font-size="14.00">pagerduty_user.jack</text>
</g>
<!-- [root] pagerduty_schedule.PAGER2&#45;schedule (expand)&#45;&gt;[root] pagerduty_user.jack (expand) -->
<g id="edge37" class="edge">
<title>[root] pagerduty_schedule.PAGER2&#45;schedule (expand)&#45;&gt;[root] pagerduty_user.jack (expand)</title>
<path fill="none" stroke="black" d="M2038.48,-503.7C2039.36,-495.98 2040.42,-486.71 2041.4,-478.11"/>
<polygon fill="black" stroke="black" points="2044.89,-478.44 2042.55,-468.1 2037.93,-477.64 2044.89,-478.44"/>
</g>
<!-- [root] pagerduty_service.pager&#45;service (expand) -->
<g id="node20" class="node">
<title>[root] pagerduty_service.pager&#45;service (expand)</title>
<polygon fill="none" stroke="black" points="1828.5,-468 1630.5,-468 1630.5,-432 1828.5,-432 1828.5,-468"/>
<text text-anchor="middle" x="1729.5" y="-446.3" font-family="Times,serif" font-size="14.00">pagerduty_service.pager&#45;service</text>
</g>
<!-- [root] pagerduty_service.pager&#45;service (expand)&#45;&gt;[root] pagerduty_escalation_policy.Priority&#45;High&#45;esc&#45;policy (expand) -->
<g id="edge38" class="edge">
<title>[root] pagerduty_service.pager&#45;service (expand)&#45;&gt;[root] pagerduty_escalation_policy.Priority&#45;High&#45;esc&#45;policy (expand)</title>
<path fill="none" stroke="black" d="M1729.5,-431.7C1729.5,-423.98 1729.5,-414.71 1729.5,-406.11"/>
<polygon fill="black" stroke="black" points="1733,-406.1 1729.5,-396.1 1726,-406.1 1733,-406.1"/>
</g>
<!-- [root] pagerduty_service_integration.cloudwatch (expand)&#45;&gt;[root] data.pagerduty_vendor.cloudwatch (expand) -->
<g id="edge39" class="edge">
<title>[root] pagerduty_service_integration.cloudwatch (expand)&#45;&gt;[root] data.pagerduty_vendor.cloudwatch (expand)</title>
<path fill="none" stroke="black" d="M1794.29,-503.94C1826.99,-483.26 1877.5,-444.99 1897.5,-396 1915.5,-351.92 1915.34,-295.48 1913.19,-262.47"/>
<polygon fill="black" stroke="black" points="1916.66,-261.93 1912.41,-252.23 1909.68,-262.47 1916.66,-261.93"/>
</g>
<!-- [root] pagerduty_service_integration.cloudwatch (expand)&#45;&gt;[root] pagerduty_service.pager&#45;service (expand) -->
<g id="edge40" class="edge">
<title>[root] pagerduty_service_integration.cloudwatch (expand)&#45;&gt;[root] pagerduty_service.pager&#45;service (expand)</title>
<path fill="none" stroke="black" d="M1755.85,-503.7C1751.86,-495.73 1747.05,-486.1 1742.63,-477.26"/>
<polygon fill="black" stroke="black" points="1745.65,-475.48 1738.05,-468.1 1739.39,-478.61 1745.65,-475.48"/>
</g>
<!-- [root] pagerduty_service_integration.newrelic (expand) -->
<g id="node22" class="node">
<title>[root] pagerduty_service_integration.newrelic (expand)</title>
<polygon fill="none" stroke="black" points="1535.5,-612 1297.5,-612 1297.5,-576 1535.5,-576 1535.5,-612"/>
<text text-anchor="middle" x="1416.5" y="-590.3" font-family="Times,serif" font-size="14.00">pagerduty_service_integration.newrelic</text>
</g>
<!-- [root] pagerduty_service_integration.newrelic (expand)&#45;&gt;[root] data.pagerduty_vendor.newrelic (expand) -->
<g id="edge41" class="edge">
<title>[root] pagerduty_service_integration.newrelic (expand)&#45;&gt;[root] data.pagerduty_vendor.newrelic (expand)</title>
<path fill="none" stroke="black" d="M1416.5,-575.97C1416.5,-528.29 1416.5,-393.18 1416.5,-334.63"/>
<polygon fill="black" stroke="black" points="1420,-334.31 1416.5,-324.31 1413,-334.31 1420,-334.31"/>
</g>
<!-- [root] pagerduty_service_integration.newrelic (expand)&#45;&gt;[root] pagerduty_service.pager&#45;service (expand) -->
<g id="edge42" class="edge">
<title>[root] pagerduty_service_integration.newrelic (expand)&#45;&gt;[root] pagerduty_service.pager&#45;service (expand)</title>
<path fill="none" stroke="black" d="M1454.26,-575.87C1511.48,-549.91 1620.08,-500.64 1682.39,-472.37"/>
<polygon fill="black" stroke="black" points="1683.95,-475.51 1691.61,-468.19 1681.06,-469.13 1683.95,-475.51"/>
</g>
<!-- [root] pagerduty_team.architect (expand) -->
<g id="node23" class="node">
<title>[root] pagerduty_team.architect (expand)</title>
<polygon fill="none" stroke="black" points="1820.5,-180 1662.5,-180 1662.5,-144 1820.5,-144 1820.5,-180"/>
<text text-anchor="middle" x="1741.5" y="-158.3" font-family="Times,serif" font-size="14.00">pagerduty_team.architect</text>
</g>
<!-- [root] pagerduty_team.architect (expand)&#45;&gt;[root] provider[&quot;registry.terraform.io/pagerduty/pagerduty&quot;] -->
<g id="edge43" class="edge">
<title>[root] pagerduty_team.architect (expand)&#45;&gt;[root] provider[&quot;registry.terraform.io/pagerduty/pagerduty&quot;]</title>
<path fill="none" stroke="black" d="M1720.24,-143.7C1709.01,-134.55 1695.08,-123.22 1683.03,-113.41"/>
<polygon fill="black" stroke="black" points="1685.01,-110.51 1675.04,-106.91 1680.59,-115.93 1685.01,-110.51"/>
</g>
<!-- [root] pagerduty_team.devops (expand) -->
<g id="node24" class="node">
<title>[root] pagerduty_team.devops (expand)</title>
<polygon fill="none" stroke="black" points="1644.5,-180 1494.5,-180 1494.5,-144 1644.5,-144 1644.5,-180"/>
<text text-anchor="middle" x="1569.5" y="-158.3" font-family="Times,serif" font-size="14.00">pagerduty_team.devops</text>
</g>
<!-- [root] pagerduty_team.devops (expand)&#45;&gt;[root] provider[&quot;registry.terraform.io/pagerduty/pagerduty&quot;] -->
<g id="edge44" class="edge">
<title>[root] pagerduty_team.devops (expand)&#45;&gt;[root] provider[&quot;registry.terraform.io/pagerduty/pagerduty&quot;]</title>
<path fill="none" stroke="black" d="M1590.76,-143.7C1601.99,-134.55 1615.92,-123.22 1627.97,-113.41"/>
<polygon fill="black" stroke="black" points="1630.41,-115.93 1635.96,-106.91 1625.99,-110.51 1630.41,-115.93"/>
</g>
<!-- [root] pagerduty_team_membership.architect (expand) -->
<g id="node25" class="node">
<title>[root] pagerduty_team_membership.architect (expand)</title>
<polygon fill="none" stroke="black" points="2405,-612 2170,-612 2170,-576 2405,-576 2405,-612"/>
<text text-anchor="middle" x="2287.5" y="-590.3" font-family="Times,serif" font-size="14.00">pagerduty_team_membership.architect</text>
</g>
<!-- [root] pagerduty_team_membership.architect (expand)&#45;&gt;[root] pagerduty_user.jack (expand) -->
<g id="edge45" class="edge">
<title>[root] pagerduty_team_membership.architect (expand)&#45;&gt;[root] pagerduty_user.jack (expand)</title>
<path fill="none" stroke="black" d="M2266.65,-575.81C2242.9,-556.74 2202.45,-525.78 2164.5,-504 2143.69,-492.05 2119.68,-480.96 2098.63,-472.05"/>
<polygon fill="black" stroke="black" points="2099.77,-468.73 2089.19,-468.11 2097.07,-475.19 2099.77,-468.73"/>
</g>
<!-- [root] pagerduty_team_membership.devops (expand) -->
<g id="node26" class="node">
<title>[root] pagerduty_team_membership.devops (expand)</title>
<polygon fill="none" stroke="black" points="1779.5,-612 1553.5,-612 1553.5,-576 1779.5,-576 1779.5,-612"/>
<text text-anchor="middle" x="1666.5" y="-590.3" font-family="Times,serif" font-size="14.00">pagerduty_team_membership.devops</text>
</g>
<!-- [root] pagerduty_team_membership.devops (expand)&#45;&gt;[root] pagerduty_user.Jinendra (expand) -->
<g id="edge46" class="edge">
<title>[root] pagerduty_team_membership.devops (expand)&#45;&gt;[root] pagerduty_user.Jinendra (expand)</title>
<path fill="none" stroke="black" d="M1636.17,-575.96C1599.46,-552.82 1542.5,-507.79 1542.5,-451 1542.5,-451 1542.5,-451 1542.5,-377 1542.5,-336.96 1544.91,-290.63 1546.68,-262.07"/>
<polygon fill="black" stroke="black" points="1550.17,-262.24 1547.31,-252.04 1543.19,-261.8 1550.17,-262.24"/>
</g>
<!-- [root] pagerduty_user.Jinendra (expand)&#45;&gt;[root] pagerduty_team.devops (expand) -->
<g id="edge47" class="edge">
<title>[root] pagerduty_user.Jinendra (expand)&#45;&gt;[root] pagerduty_team.devops (expand)</title>
<path fill="none" stroke="black" d="M1553.69,-215.7C1556.03,-207.9 1558.85,-198.51 1561.45,-189.83"/>
<polygon fill="black" stroke="black" points="1564.85,-190.69 1564.37,-180.1 1558.14,-188.68 1564.85,-190.69"/>
</g>
<!-- [root] pagerduty_user.jack (expand)&#45;&gt;[root] pagerduty_team.architect (expand) -->
<g id="edge48" class="edge">
<title>[root] pagerduty_user.jack (expand)&#45;&gt;[root] pagerduty_team.architect (expand)</title>
<path fill="none" stroke="black" d="M2049.25,-431.99C2059.99,-389.48 2081.09,-277.64 2025.5,-216 1999.91,-187.63 1904.22,-174.26 1830.91,-168.08"/>
<polygon fill="black" stroke="black" points="1830.97,-164.57 1820.72,-167.25 1830.41,-171.55 1830.97,-164.57"/>
</g>
<!-- [root] pagerduty_user.rupesh (expand)&#45;&gt;[root] pagerduty_team.architect (expand) -->
<g id="edge49" class="edge">
<title>[root] pagerduty_user.rupesh (expand)&#45;&gt;[root] pagerduty_team.architect (expand)</title>
<path fill="none" stroke="black" d="M1721.17,-215.7C1724.21,-207.81 1727.88,-198.3 1731.26,-189.55"/>
<polygon fill="black" stroke="black" points="1734.57,-190.69 1734.9,-180.1 1728.04,-188.17 1734.57,-190.69"/>
</g>
<!-- [root] pagerduty_user.rupesh (expand)&#45;&gt;[root] pagerduty_team.devops (expand) -->
<g id="edge50" class="edge">
<title>[root] pagerduty_user.rupesh (expand)&#45;&gt;[root] pagerduty_team.devops (expand)</title>
<path fill="none" stroke="black" d="M1679.03,-215.88C1659.38,-206.39 1634.78,-194.51 1613.87,-184.42"/>
<polygon fill="black" stroke="black" points="1615.38,-181.26 1604.86,-180.07 1612.34,-187.57 1615.38,-181.26"/>
</g>
<!-- [root] var.pager&#45;token -->
<g id="node33" class="node">
<title>[root] var.pager&#45;token</title>
<polygon fill="none" stroke="black" points="1701.5,-36 1603.5,-36 1603.5,0 1707.5,0 1707.5,-30 1701.5,-36"/>
<polyline fill="none" stroke="black" points="1701.5,-36 1701.5,-30 "/>
<polyline fill="none" stroke="black" points="1707.5,-30 1701.5,-30 "/>
<text text-anchor="middle" x="1655.5" y="-14.3" font-family="Times,serif" font-size="14.00">var.pager&#45;token</text>
</g>
<!-- [root] provider[&quot;registry.terraform.io/pagerduty/pagerduty&quot;]&#45;&gt;[root] var.pager&#45;token -->
<g id="edge60" class="edge">
<title>[root] provider[&quot;registry.terraform.io/pagerduty/pagerduty&quot;]&#45;&gt;[root] var.pager&#45;token</title>
<path fill="none" stroke="black" d="M1655.5,-71.7C1655.5,-63.98 1655.5,-54.71 1655.5,-46.11"/>
<polygon fill="black" stroke="black" points="1659,-46.1 1655.5,-36.1 1652,-46.1 1659,-46.1"/>
</g>
<!-- [root] meta.count&#45;boundary (EachMode fixup) -->
<g id="node35" class="node">
<title>[root] meta.count&#45;boundary (EachMode fixup)</title>
<ellipse fill="none" stroke="black" cx="1365.5" cy="-666" rx="180.07" ry="18"/>
<text text-anchor="middle" x="1365.5" y="-662.3" font-family="Times,serif" font-size="14.00">[root] meta.count&#45;boundary (EachMode fixup)</text>
</g>
<!-- [root] meta.count&#45;boundary (EachMode fixup)&#45;&gt;[root] aws_cloudwatch_metric_alarm.CPU (expand) -->
<g id="edge25" class="edge">
<title>[root] meta.count&#45;boundary (EachMode fixup)&#45;&gt;[root] aws_cloudwatch_metric_alarm.CPU (expand)</title>
<path fill="none" stroke="black" d="M1268.16,-650.83C1192.48,-639.82 1087.05,-624.48 1005.86,-612.66"/>
<polygon fill="black" stroke="black" points="1005.98,-609.14 995.58,-611.17 1004.97,-616.07 1005.98,-609.14"/>
</g>
<!-- [root] meta.count&#45;boundary (EachMode fixup)&#45;&gt;[root] aws_cloudwatch_metric_alarm.Health (expand) -->
<g id="edge26" class="edge">
<title>[root] meta.count&#45;boundary (EachMode fixup)&#45;&gt;[root] aws_cloudwatch_metric_alarm.Health (expand)</title>
<path fill="none" stroke="black" d="M1225.96,-654.57C1106.53,-645.21 929.76,-630.31 765.86,-612.12"/>
<polygon fill="black" stroke="black" points="765.91,-608.61 755.58,-610.98 765.13,-615.56 765.91,-608.61"/>
</g>
<!-- [root] meta.count&#45;boundary (EachMode fixup)&#45;&gt;[root] aws_route_table_association.Pager&#45;public&#45;subnet (expand) -->
<g id="edge27" class="edge">
<title>[root] meta.count&#45;boundary (EachMode fixup)&#45;&gt;[root] aws_route_table_association.Pager&#45;public&#45;subnet (expand)</title>
<path fill="none" stroke="black" d="M1224.92,-654.71C1192.6,-652.43 1158.36,-650.07 1126.5,-648 857.92,-630.55 787.72,-634.66 515.24,-612.03"/>
<polygon fill="black" stroke="black" points="515.3,-608.53 505.04,-611.18 514.71,-615.5 515.3,-608.53"/>
</g>
<!-- [root] meta.count&#45;boundary (EachMode fixup)&#45;&gt;[root] aws_sns_topic_subscription.pagerdutysnsub (expand) -->
<g id="edge28" class="edge">
<title>[root] meta.count&#45;boundary (EachMode fixup)&#45;&gt;[root] aws_sns_topic_subscription.pagerdutysnsub (expand)</title>
<path fill="none" stroke="black" d="M1314.43,-648.68C1283.14,-638.68 1242.85,-625.8 1209.58,-615.16"/>
<polygon fill="black" stroke="black" points="1210.53,-611.79 1199.94,-612.08 1208.4,-618.46 1210.53,-611.79"/>
</g>
<!-- [root] meta.count&#45;boundary (EachMode fixup)&#45;&gt;[root] pagerduty_escalation_policy.Priority&#45;Low&#45;esc&#45;policy (expand) -->
<g id="edge29" class="edge">
<title>[root] meta.count&#45;boundary (EachMode fixup)&#45;&gt;[root] pagerduty_escalation_policy.Priority&#45;Low&#45;esc&#45;policy (expand)</title>
<path fill="none" stroke="black" d="M1476.82,-651.79C1568.69,-640.89 1700.02,-625.31 1801.89,-613.23"/>
<polygon fill="black" stroke="black" points="1802.45,-616.68 1811.96,-612.03 1801.62,-609.73 1802.45,-616.68"/>
</g>
<!-- [root] meta.count&#45;boundary (EachMode fixup)&#45;&gt;[root] pagerduty_service_integration.newrelic (expand) -->
<g id="edge30" class="edge">
<title>[root] meta.count&#45;boundary (EachMode fixup)&#45;&gt;[root] pagerduty_service_integration.newrelic (expand)</title>
<path fill="none" stroke="black" d="M1378.11,-647.7C1384.1,-639.47 1391.38,-629.48 1397.98,-620.42"/>
<polygon fill="black" stroke="black" points="1400.98,-622.25 1404.04,-612.1 1395.32,-618.13 1400.98,-622.25"/>
</g>
<!-- [root] meta.count&#45;boundary (EachMode fixup)&#45;&gt;[root] pagerduty_team_membership.architect (expand) -->
<g id="edge31" class="edge">
<title>[root] meta.count&#45;boundary (EachMode fixup)&#45;&gt;[root] pagerduty_team_membership.architect (expand)</title>
<path fill="none" stroke="black" d="M1511.2,-655.37C1696.97,-642.99 2007.82,-621.92 2122.5,-612 2134.61,-610.95 2147.22,-609.79 2159.82,-608.57"/>
<polygon fill="black" stroke="black" points="2160.31,-612.04 2169.92,-607.59 2159.63,-605.08 2160.31,-612.04"/>
</g>
<!-- [root] meta.count&#45;boundary (EachMode fixup)&#45;&gt;[root] pagerduty_team_membership.devops (expand) -->
<g id="edge32" class="edge">
<title>[root] meta.count&#45;boundary (EachMode fixup)&#45;&gt;[root] pagerduty_team_membership.devops (expand)</title>
<path fill="none" stroke="black" d="M1433.05,-649.29C1477.55,-638.94 1536.12,-625.32 1583.46,-614.31"/>
<polygon fill="black" stroke="black" points="1584.44,-617.68 1593.39,-612 1582.85,-610.86 1584.44,-617.68"/>
</g>
<!-- [root] provider[&quot;registry.terraform.io/hashicorp/aws&quot;] (close) -->
<g id="node36" class="node">
<title>[root] provider[&quot;registry.terraform.io/hashicorp/aws&quot;] (close)</title>
<ellipse fill="none" stroke="black" cx="884.5" cy="-666" rx="232.86" ry="18"/>
<text text-anchor="middle" x="884.5" y="-662.3" font-family="Times,serif" font-size="14.00">[root] provider[&quot;registry.terraform.io/hashicorp/aws&quot;] (close)</text>
</g>
<!-- [root] provider[&quot;registry.terraform.io/hashicorp/aws&quot;] (close)&#45;&gt;[root] aws_cloudwatch_metric_alarm.CPU (expand) -->
<g id="edge51" class="edge">
<title>[root] provider[&quot;registry.terraform.io/hashicorp/aws&quot;] (close)&#45;&gt;[root] aws_cloudwatch_metric_alarm.CPU (expand)</title>
<path fill="none" stroke="black" d="M884.5,-647.7C884.5,-639.98 884.5,-630.71 884.5,-622.11"/>
<polygon fill="black" stroke="black" points="888,-622.1 884.5,-612.1 881,-622.1 888,-622.1"/>
</g>
<!-- [root] provider[&quot;registry.terraform.io/hashicorp/aws&quot;] (close)&#45;&gt;[root] aws_cloudwatch_metric_alarm.Health (expand) -->
<g id="edge52" class="edge">
<title>[root] provider[&quot;registry.terraform.io/hashicorp/aws&quot;] (close)&#45;&gt;[root] aws_cloudwatch_metric_alarm.Health (expand)</title>
<path fill="none" stroke="black" d="M826.75,-648.5C791.56,-638.44 746.36,-625.53 709.18,-614.91"/>
<polygon fill="black" stroke="black" points="710,-611.5 699.42,-612.12 708.08,-618.23 710,-611.5"/>
</g>
<!-- [root] provider[&quot;registry.terraform.io/hashicorp/aws&quot;] (close)&#45;&gt;[root] aws_route_table_association.Pager&#45;public&#45;subnet (expand) -->
<g id="edge53" class="edge">
<title>[root] provider[&quot;registry.terraform.io/hashicorp/aws&quot;] (close)&#45;&gt;[root] aws_route_table_association.Pager&#45;public&#45;subnet (expand)</title>
<path fill="none" stroke="black" d="M772.95,-650.15C692.31,-639.42 582.85,-624.86 496.67,-613.39"/>
<polygon fill="black" stroke="black" points="496.92,-609.89 486.54,-612.04 495.99,-616.83 496.92,-609.89"/>
</g>
<!-- [root] provider[&quot;registry.terraform.io/hashicorp/aws&quot;] (close)&#45;&gt;[root] aws_sns_topic_subscription.pagerdutysnsub (expand) -->
<g id="edge54" class="edge">
<title>[root] provider[&quot;registry.terraform.io/hashicorp/aws&quot;] (close)&#45;&gt;[root] aws_sns_topic_subscription.pagerdutysnsub (expand)</title>
<path fill="none" stroke="black" d="M945.93,-648.59C983.93,-638.43 1032.95,-625.34 1073.01,-614.64"/>
<polygon fill="black" stroke="black" points="1073.96,-618 1082.72,-612.04 1072.16,-611.24 1073.96,-618"/>
</g>
<!-- [root] provider[&quot;registry.terraform.io/pagerduty/pagerduty&quot;] (close) -->
<g id="node37" class="node">
<title>[root] provider[&quot;registry.terraform.io/pagerduty/pagerduty&quot;] (close)</title>
<ellipse fill="none" stroke="black" cx="1887.5" cy="-666" rx="256.15" ry="18"/>
<text text-anchor="middle" x="1887.5" y="-662.3" font-family="Times,serif" font-size="14.00">[root] provider[&quot;registry.terraform.io/pagerduty/pagerduty&quot;] (close)</text>
</g>
<!-- [root] provider[&quot;registry.terraform.io/pagerduty/pagerduty&quot;] (close)&#45;&gt;[root] pagerduty_escalation_policy.Priority&#45;Low&#45;esc&#45;policy (expand) -->
<g id="edge55" class="edge">
<title>[root] provider[&quot;registry.terraform.io/pagerduty/pagerduty&quot;] (close)&#45;&gt;[root] pagerduty_escalation_policy.Priority&#45;Low&#45;esc&#45;policy (expand)</title>
<path fill="none" stroke="black" d="M1904.31,-647.7C1912.63,-639.14 1922.81,-628.66 1931.89,-619.3"/>
<polygon fill="black" stroke="black" points="1934.43,-621.72 1938.88,-612.1 1929.41,-616.84 1934.43,-621.72"/>
</g>
<!-- [root] provider[&quot;registry.terraform.io/pagerduty/pagerduty&quot;] (close)&#45;&gt;[root] pagerduty_service_integration.cloudwatch (expand) -->
<g id="edge56" class="edge">
<title>[root] provider[&quot;registry.terraform.io/pagerduty/pagerduty&quot;] (close)&#45;&gt;[root] pagerduty_service_integration.cloudwatch (expand)</title>
<path fill="none" stroke="black" d="M2037.12,-651.37C2102.93,-639.47 2158.13,-617.29 2122.5,-576 2115.02,-567.33 2000.02,-551.36 1902.36,-539.2"/>
<polygon fill="black" stroke="black" points="1902.71,-535.72 1892.36,-537.96 1901.85,-542.67 1902.71,-535.72"/>
</g>
<!-- [root] provider[&quot;registry.terraform.io/pagerduty/pagerduty&quot;] (close)&#45;&gt;[root] pagerduty_service_integration.newrelic (expand) -->
<g id="edge57" class="edge">
<title>[root] provider[&quot;registry.terraform.io/pagerduty/pagerduty&quot;] (close)&#45;&gt;[root] pagerduty_service_integration.newrelic (expand)</title>
<path fill="none" stroke="black" d="M1783.26,-649.51C1711.82,-638.89 1616.7,-624.75 1541.23,-613.54"/>
<polygon fill="black" stroke="black" points="1541.59,-610.05 1531.19,-612.04 1540.56,-616.98 1541.59,-610.05"/>
</g>
<!-- [root] provider[&quot;registry.terraform.io/pagerduty/pagerduty&quot;] (close)&#45;&gt;[root] pagerduty_team_membership.architect (expand) -->
<g id="edge58" class="edge">
<title>[root] provider[&quot;registry.terraform.io/pagerduty/pagerduty&quot;] (close)&#45;&gt;[root] pagerduty_team_membership.architect (expand)</title>
<path fill="none" stroke="black" d="M1978.27,-649.12C2038.22,-638.62 2117.06,-624.83 2180.12,-613.79"/>
<polygon fill="black" stroke="black" points="2180.86,-617.22 2190.1,-612.04 2179.65,-610.32 2180.86,-617.22"/>
</g>
<!-- [root] provider[&quot;registry.terraform.io/pagerduty/pagerduty&quot;] (close)&#45;&gt;[root] pagerduty_team_membership.devops (expand) -->
<g id="edge59" class="edge">
<title>[root] provider[&quot;registry.terraform.io/pagerduty/pagerduty&quot;] (close)&#45;&gt;[root] pagerduty_team_membership.devops (expand)</title>
<path fill="none" stroke="black" d="M1834.85,-648.32C1803.36,-638.35 1763.14,-625.61 1729.91,-615.08"/>
<polygon fill="black" stroke="black" points="1730.88,-611.72 1720.29,-612.04 1728.76,-618.39 1730.88,-611.72"/>
</g>
<!-- [root] root -->
<g id="node38" class="node">
<title>[root] root</title>
<ellipse fill="none" stroke="black" cx="1365.5" cy="-738" rx="48.19" ry="18"/>
<text text-anchor="middle" x="1365.5" y="-734.3" font-family="Times,serif" font-size="14.00">[root] root</text>
</g>
<!-- [root] root&#45;&gt;[root] meta.count&#45;boundary (EachMode fixup) -->
<g id="edge61" class="edge">
<title>[root] root&#45;&gt;[root] meta.count&#45;boundary (EachMode fixup)</title>
<path fill="none" stroke="black" d="M1365.5,-719.7C1365.5,-711.98 1365.5,-702.71 1365.5,-694.11"/>
<polygon fill="black" stroke="black" points="1369,-694.1 1365.5,-684.1 1362,-694.1 1369,-694.1"/>
</g>
<!-- [root] root&#45;&gt;[root] provider[&quot;registry.terraform.io/hashicorp/aws&quot;] (close) -->
<g id="edge62" class="edge">
<title>[root] root&#45;&gt;[root] provider[&quot;registry.terraform.io/hashicorp/aws&quot;] (close)</title>
<path fill="none" stroke="black" d="M1321.54,-730.6C1249.04,-720.05 1102.17,-698.68 998.75,-683.63"/>
<polygon fill="black" stroke="black" points="998.97,-680.12 988.57,-682.15 997.96,-687.05 998.97,-680.12"/>
</g>
<!-- [root] root&#45;&gt;[root] provider[&quot;registry.terraform.io/pagerduty/pagerduty&quot;] (close) -->
<g id="edge63" class="edge">
<title>[root] root&#45;&gt;[root] provider[&quot;registry.terraform.io/pagerduty/pagerduty&quot;] (close)</title>
<path fill="none" stroke="black" d="M1410.01,-731.03C1487.67,-720.62 1650.5,-698.78 1764.31,-683.52"/>
<polygon fill="black" stroke="black" points="1765.03,-686.95 1774.48,-682.16 1764.1,-680.02 1765.03,-686.95"/>
</g>
</g>
</svg>